<?xml version="1.0" encoding="UTF-8"?>
<svg xmlns="http://www.w3.org/2000/svg" version="1.1" viewBox="0 0 160 160">
  <!-- Generator: Adobe Illustrator 29.5.1, SVG Export Plug-In . SVG Version: 2.1.0 Build 141)  -->
  <defs>
    <style>
      .st0 {
        font-family: Alata-Regular, Alata;
        font-size: 28px;
        letter-spacing: .03em;
      }

      .st1 {
        fill: none;
        stroke: #000;
        stroke-miterlimit: 10;
        stroke-width: .75px;
      }
    </style>
  </defs>
  <g id="Layer_3">
    <text class="st0" transform="translate(21.6 146.88)"><tspan x="0" y="0">Cloud Log</tspan></text>
  </g>
  <g id="Layer_2">
    <path class="st1" d="M33.02,26.25s-.63-.13-.76-.1c-.12.03.29-.48-.26-.37-.35.07-.96-.04-1.06-.14-.18-.17-.1-.18-.14-.37-.11-.49.2-.61-.56-.4-.75.21-.86.06-.86.06-.3-.11-.16-.97.59-1.68.31-.29,4.45-.85,6.25-.29.72.22,1.29.69,1.76,1.23.38.43,1.36,1.04,3.83,1.72.38.11,2.44.12,2.5.14,1.57.57,0,0,3.92.73.03,0,0-.63.02-.64.1-.08-2.73-3.96-2.54-8.56.16-3.93,2.58-6.92,3.58-7.77.87-.74,4.69-4.01,10.23-3.62,5.23.36,10.4,3.86,11.22,7.85.7,3.42.9,8.47,0,9.1-.38.26.91,1.28,2.07,1.6,1.38.39,2.8-.02,4.21-.43,1.67-.48,2.89-.55,5.94-.06,6.74,1.09,9.87,5.76,18.17,7.86,5.07,1.28,6.16.14,12.63,1.75,1.33.33,4.01,1.38,7.03,1.17.71-.05,1.3-.16,2.37-.1,2.41.12,2,.37,2.87.32.48-.03.86,0,1.39-.45.46-.39,1.56-.45,1.91-.27.23.12,1.02.57,1.16.78.07.11.24.15.34.06.32-.29,1.36-.36,2.05-.39.48-.02,1.91.66,2.18,1.02.43.57,1.3,1.37,1.06,1.03,0,0,1.63.54,1.79.72.24.27.08.02.44.68.19.36.2.76.18,1.26-.05,1.29.24.71-.31,1.29-.33.26-1.41.29-1.57.27-2.12.05-2.45.22-3.76.22-.59,0-1.76-.46-3.16-.66-2.2-.33-4.02.04-7.74.71-3.89.7-3.74.82-6.85,1.28-.71.11-4.23.21-8.63.37-3.34-1.29-7.74-2.35-10.71-3.2-1.26-.36,1.99,2.55,3.34,4.55,1.22,1.81,8.7,17.29,7.03,19.02-1.24,1.28-3.05,1.29-5.9,2.74-1.68.85-1.53,1.83-3.13,2.57-1.99.92-4,.72-4.07,1.27-.05.36.79.43,1.09,1.12.41.93-.67,1.77-1.12,3.16-.49,1.52.54,1.12.16,2.67-.87,3.53-5.67,9.26-8.67,10.52-1.33.55-5.48-.07-7.77-.13-1.19-.03-2.16-.04-2.8-.05.06,7,.21,12.13.35,13.23,0,.02.07.41.21,1.19.15.88.23,1.33.5,1.73.2.29.43.49.59.61.04.81.08,1.63.12,2.44.39.37.8.8.93,1.3,1.01,4.05,1.03,6.4.73,6.4-.63.01-3.54.41-8.3.12-3.49-.21-6.37-.05-8.3.12-.31-.31-1.33-1-1.31-1.84.03-1.14-.57-1.85,2.2-3.9,1-.74,1.69-.38,2.55-.78,1.37-.63,2.25-2.36,2.48-6.3.39-6.62-4.77-13.11-4.68-15.65-.45-.3-1.66-1.07-3.12-.91-.87.1-1.45.49-1.65.6-1.1.62-6.48-1.18-10.18-2.59-.4-.15-.42-1.19-.49-1.58-1.83-1.62-8.1-3.73-9.03-4.67,0,0-3.65-.38-4.26.58-.89,1.41,3.06,3.37,4.4,8.18.62,2.22-.12,2.19.5,6.95.28,2.16.64,3.7,1.21,6.17.46,1.99,1.12,4.59,2.05,7.63l1.24-.08c1.42,4.34,1.18,3.62,2.6,7.96-1.94,1.03-3.59,1.4-4.69,1.56-3.94.57-5.7-.93-9.15.06-1.64.47-1.24.81-3.29,1.52-1.7.59-3.09.75-7.6.87-7.01.19-6.6-.39-7.44-.49-1.07-.13-1.05-2.16-.63-2.85.14-.24.6-.99,1.53-1.36,1.29-.52,2.16.22,3.17-.41.54-.34.76-.26,1.28-.6.99-.64,1.89.19,2.97-.51,1.78-1.14,4.46-2.82,6.1-3.83.51-.31.09-1.1.59-1.29.3-.11.47-.26.69-.4.4-.26.04-.67.52-1.22.26-.29,1.41-.79,2.1-1.25,1.19-.79.14-4.58-2.41-9.29-3.44-6.33-6.88-10.17-6.28-12.97.06-.3-.31-1.21-.81-2.11-.52-.94-1.35-1.61-1.85-2.13-1.4-1.43-2.68-9.66,2.41-11.64,1.4-.54,2.35.06,4.54-.85,1.74-.72,1.68-1.32,3.12-1.92,0,0,5.57-.25,7.1.19,2.74.8,3.14,1.77,5.54,1.88.92.04,1.63-.07,2.7.26,1.3.4,2.2,1.16,2.77,1.75l5.46.06c-.1-.27-.47-1.35.07-2.53.7-1.53,2.34-1.98,2.55-2.04-.4-1.78-.8-3.57-1.2-5.35.45-.24.89-.49,1.34-.73v-1.3c-.5.14-1.28-.07-1.95-.47-.83-.49-2.63-4.35-3.15-6.81-.41-1.94-1.45-4.06-1.27-6.98.11-1.67-.8-3.23-2.22-4.28-2.99-2.21-2.92-5.39-7.34-6.88-1.42-.48-3.45-2.38-4.19-2.82-.42-.1-.88-.06-1.01-.2-.05-.05-.44-.28-.44-.28-.07-.26-.67-.16-.61-.22-.34-.16-.6.14-.74,0-.2-.19-.33-.25-.56-.26Z"/>
  </g>
</svg>